<svg xmlns="http://www.w3.org/2000/svg" width="505" height="339" viewBox="0 0 505 339">
    <g fill="none" fill-rule="evenodd">
        <g>
            <g>
                <g>
                    <g fill-rule="nonzero" opacity=".5">
                        <path fill="#7B8488" d="M209.045 118.456L200.694 103.991 153.851 131.035 153.851 74.041 137.149 74.041 137.149 131.035 90.306 103.991 81.955 118.456 128.797 145.5 81.955 172.544 90.306 187.009 137.149 159.965 137.149 219.926 153.851 219.926 153.851 159.965 200.694 187.009 209.045 172.544 162.203 145.5z" transform="translate(-839 -975) translate(120 999) translate(719) translate(190) rotate(-29 145.5 146.983)"/>
                        <path fill="#7B8488" d="M145.5 2.97C66.782 2.97 2.97 66.781 2.97 145.5S66.781 288.03 145.5 288.03s142.53-63.812 142.53-142.53S224.219 2.97 145.5 2.97zm0 206.553c-35.302 0-64.023-28.721-64.023-64.023 0-35.302 28.721-64.023 64.023-64.023 35.302 0 64.023 28.721 64.023 64.023 0 35.302-28.721 64.023-64.023 64.023z" transform="translate(-839 -975) translate(120 999) translate(719) translate(190) rotate(-12 145.5 145.5)"/>
                        <g fill="#C7E7D7">
                            <path d="M88.594.294c48.766 0 88.3 39.533 88.3 88.3 0 48.766-39.534 88.3-88.3 88.3-48.767 0-88.3-39.534-88.3-88.3 0-48.767 39.533-88.3 88.3-88.3zm0 35.512c-29.108 0-52.788 23.68-52.788 52.788 0 29.107 23.68 52.787 52.788 52.787 29.107 0 52.787-23.68 52.787-52.787 0-29.108-23.68-52.788-52.787-52.788zm0 34.658c10.012 0 18.129 8.117 18.129 18.13 0 10.012-8.117 18.129-18.13 18.129-10.012 0-18.129-8.117-18.129-18.13 0-10.012 8.117-18.129 18.13-18.129z" transform="translate(-839 -975) translate(120 999) translate(719) translate(190) translate(56 56)"/>
                        </g>
                        <path fill="#5D6065" d="M163.402 259.39l20.915 23.247c-3.016.85-6.074 1.618-9.183 2.28-3.236.687-6.47 1.249-9.696 1.708l-14.453-16.063 12.417-11.172zm-47.871-2.565l9.652 29.744c-3.101-.45-6.208-.992-9.317-1.653-3.236-.688-6.418-1.49-9.553-2.383l-6.67-20.553 15.888-5.155zm92.646-14.562l28.563 12.73c-2.41 2.003-4.89 3.949-7.463 5.817-2.676 1.945-5.4 3.773-8.162 5.505l-19.737-8.796 6.8-15.256zm-151.946-9.004l16.61 1.752-3.28 31.098c-2.65-1.672-5.267-3.431-7.838-5.3-2.677-1.944-5.258-3.97-7.759-6.062l2.267-21.488zm185.884-24.856l31.271.013c-1.386 2.81-2.862 5.597-4.451 8.35-1.654 2.864-3.4 5.643-5.218 8.348l-21.608-.008.006-16.703zm-213.86-19.04l14.461 8.357-15.646 27.075c-1.74-2.605-3.416-5.277-5.005-8.03-1.654-2.865-3.187-5.766-4.622-8.694l10.812-18.708zM287.92 150.96c-.123 3.131-.338 6.278-.67 9.438-.346 3.29-.81 6.54-1.371 9.75l-19.744 8.782-6.788-15.262zM20.55 137.882l9.813 13.517-25.306 18.37c-.53-3.087-.975-6.21-1.306-9.37-.347-3.29-.568-6.565-.687-9.822l17.486-12.695zM277.828 92.56c1.161 2.911 2.244 5.873 3.227 8.895 1.022 3.147 1.92 6.303 2.713 9.465l-14.465 16.052-12.408-11.18zM34.451 87.72l3.466 16.339-30.59 6.49c.772-3.038 1.636-6.07 2.619-9.094 1.022-3.146 2.151-6.227 3.367-9.251l21.138-4.485zm210.405-44.405c2.244 2.186 4.438 4.451 6.565 6.814 2.214 2.458 4.317 4.977 6.328 7.542l-6.685 20.548-15.883-5.167zm-198.437-.269l21.134 4.502-3.479 16.336L33.49 57.37c1.94-2.46 3.963-4.88 6.09-7.242 2.214-2.459 4.5-4.814 6.84-7.082zm148.284-31.308c2.94 1.084 5.866 2.26 8.77 3.554 3.021 1.345 5.968 2.79 8.848 4.316l2.25 21.49-16.611 1.74zm-98.046-.134l17.476 12.708-9.823 13.509-25.292-18.39c2.774-1.46 5.606-2.847 8.51-4.139 3.022-1.346 6.067-2.568 9.129-3.688zM145.5 2.97l1.416.008c2.829.03 5.636.147 8.424.336l10.796 18.718-14.468 8.346-6.168-10.694-9.457-16.393c3.127-.205 6.278-.32 9.457-.32z" transform="translate(-839 -975) translate(120 999) translate(719) translate(190) rotate(-12 145.492 144.797)"/>
                    </g>
                    <g>
                        <path fill="#C7E7D7" d="M216.31 0l10.803.051 3.091.045 1.76.048 3.3.127 1.651.083c6.055.35 12.134 1.295 18.332 5.553 1.004.69 2.232 1.868 3.62 3.412l.947 1.082c.324.377.654.772.991 1.182l1.03 1.274 1.065 1.358 1.095 1.435 1.121 1.502 1.143 1.561 1.162 1.614 2.358 3.349 1.785 2.587 2.556 3.772 2.227 3.336 3.206 4.866 7.394 11.323 1.463 2.184.866 1.235c.331.454.686.902 1.064 1.344 6.157 1.554 10.256 2.332 12.298 2.332 3.617 0 2.69-3.564 2.69-9.56 0-5.997 4.676-14.037 19.702-5.368 15.025 8.669 2.31 19.17-8.217 19.17-4.822 0-8.001 1.623-9.537 4.869 1.85.868 3.826 1.739 5.933 2.619l2.857 1.167 3.36 1.321 1.305.54.879.381.884.405.887.43.889.462c.148.08.296.16.444.242l.888.513c11.232 6.729 21.777 22.823 15.539 81.438l-4.12 37.657-.693 5.998-.442 3.594-.432 3.286-.32 2.268-.321 2.105-.323 1.948-.217 1.214-.332 1.696-.34 1.553-.233.957-.237.897-.245.838-.25.781-.259.725-.267.67-.275.617-.285.566-.147.264-.3.492c-.154.233-.311.449-.474.648l-.33.374c-.899.94-1.937 1.409-3.173 1.533l-.473.031-38.834.004c-3.752-2.398-5.77-6.574-6.056-12.526h-38.507c-6.679 0-10.86-1.839-12.543-5.516H112.287c-1.618 3.536-5.546 5.372-11.783 5.508l-.76.008H61.237c-.273 5.682-2.124 9.745-5.555 12.188l-.5.338-38.835-.004-.473-.03c-1.16-.118-2.144-.537-3.003-1.363l-.337-.353c-.11-.124-.218-.257-.324-.397l-.312-.443c-.102-.156-.203-.32-.301-.492l-.29-.54c-.048-.095-.095-.191-.142-.29l-.275-.617c-.046-.107-.09-.217-.135-.328l-.262-.698-.129-.369-.25-.78-.245-.839-.237-.897-.233-.957-.228-1.02-.223-1.082-.33-1.746-.324-1.896-.214-1.351-.427-2.915-.43-3.21-.551-4.444-.936-8.165L2.3 159.283l-.186-1.663c-6.777-60.589 3.927-76.99 15.32-83.795l.834-.482.836-.45c.139-.072.278-.144.417-.214l.835-.409.831-.385 1.24-.54 1.225-.503 3.686-1.451 2.453-1.006c2.892-1.208 5.54-2.399 7.95-3.59-1.683-2.599-4.682-3.898-8.996-3.898-10.528 0-23.243-10.501-8.217-19.17 15.026-8.669 19.701-.63 19.701 5.367s-.927 9.56 2.69 9.56c1.657 0 4.665-.51 9.027-1.533.654-.7 1.246-1.413 1.778-2.142l.638-.903 1.757-2.615 8.699-13.313 2.787-4.21 1.144-1.708 2.587-3.821 2.39-3.459 1.777-2.516 1.168-1.625 1.15-1.573 1.129-1.513 1.102-1.445c.181-.235.361-.466.54-.695l1.054-1.327 1.018-1.239c.166-.199.331-.393.494-.584l.954-1.09c1.396-1.556 2.632-2.743 3.641-3.436C93.951 1.649 100.03.705 106.085.354l1.65-.083 4.267-.157 3.885-.063 8.44-.047L133.858 0l28.87.096 8.77.044 34.63-.136L216.31 0z" transform="translate(-839 -975) translate(120 999) translate(719) translate(0 65)"/>
                        <path fill="#CCCFD1" d="M293.781 64C302.594 69.283 307 73.372 307 76.267c0 4.343-7.34 14.458-20.691 27.824-8.753 8.763-19.49 13.392-32.21 13.887l-.65.022H89.55c-13.005-.362-23.958-4.998-32.859-13.909C43.34 90.725 36 80.61 36 76.267c0-2.895 4.406-6.984 13.219-12.267H293.78z" transform="translate(-839 -975) translate(120 999) translate(719) translate(0 65)"/>
                        <path fill="#5D6065" d="M115.209 188c-25.828 0-35.126-10.103-37.524-19.837l-.205-.911-.166-.907c-.099-.603-.172-1.202-.224-1.795l-.06-.883c-.016-.293-.025-.583-.03-.872v-.858c.006-.283.015-.564.03-.842l.054-.825.037-.405.091-.795c.017-.131.035-.26.054-.39l.124-.76.142-.736.078-.358.169-.695.183-.664.196-.633.208-.598.107-.287c2.623-6.802 6.456-10.065 15.86-10.949h155.334c8.945.841 12.85 3.835 15.467 9.98l.393.97.213.58.202.617.19.648.175.68.16.709.143.735.124.761.102.785.08.805c.01.136.021.273.03.41l.042.834c.005.14.009.282.012.423v.858c-.002.145-.006.29-.01.435l-.046.877-.077.889-.111.897C265.269 176.257 256.636 188 228.79 188H115.209zM15.85 120.617c4.529 5.492 39.34 14.8 43.977 14.369 4.636-.43 13.173-5.247 13.173-6.842 0-1.595-24.936-20.762-33.158-26.339-8.22-5.576-24.431-10.968-27.4-5.576-2.968 5.39-1.122 18.896 3.408 24.388z" transform="translate(-839 -975) translate(120 999) translate(719) translate(0 65)"/>
                        <path fill="#5D6065" d="M273.85 120.617c4.529 5.492 39.34 14.8 43.977 14.369 4.636-.43 13.173-5.247 13.173-6.842 0-1.595-24.937-20.762-33.158-26.339-8.22-5.576-24.431-10.968-27.4-5.576-2.968 5.39-1.122 18.896 3.408 24.388z" transform="translate(-839 -975) translate(120 999) translate(719) translate(0 65) matrix(-1 0 0 1 600 0)"/>
                        <path fill="#7B8488" d="M64 58c0-2.634 1.16-6.336 3.079-10.541l.708-1.505c1.106-2.285 2.412-4.693 3.857-7.14l.983-1.637c.334-.547.674-1.095 1.02-1.643l1.053-1.643 1.083-1.639c.183-.272.366-.544.551-.816l1.12-1.62 1.139-1.603c.19-.266.383-.53.575-.793l1.16-1.565 1.171-1.532 1.176-1.495c.196-.245.393-.489.589-.73l1.177-1.428 1.173-1.377 1.165-1.319 1.152-1.256 1.137-1.19 1.116-1.114c3.132-3.05 5.976-5.15 8.127-5.737 3.717-1.014 8.05-1.404 12.965-1.545l2.506-.052 2.602-.02 4.08.005 5.766.02 3.02-.01 8.44-.061L143.109 7l20.866.032 7.528.03L192.175 7l11.07.007 12.026.075 5.858-.01 2.79-.012h2.697l2.602.02 2.506.052c4.915.14 9.248.531 12.965 1.545 2.405.655 5.674 3.201 9.243 6.852l1.137 1.189 1.152 1.256 1.165 1.32 1.173 1.376 1.177 1.427 1.177 1.474 1.174 1.514c.195.255.39.512.584.77l1.161 1.565 1.147 1.591c.19.267.38.535.567.804l1.12 1.621 1.096 1.635c.18.273.36.546.538.82l1.053 1.643c.173.274.345.548.515.822l1.002 1.64c1.638 2.729 3.114 5.42 4.343 7.958l.708 1.505c1.805 3.958 2.94 7.47 3.067 10.065L279 58H64z" transform="translate(-839 -975) translate(120 999) translate(719) translate(0 65)"/>
                    </g>
                </g>
            </g>
        </g>
    </g>
</svg>
