<svg xmlns="http://www.w3.org/2000/svg" width="32" height="32" viewBox="0 0 32 32">
    <g fill="none" fill-rule="evenodd">
        <g>
            <g>
                <g>
                    <path d="M0 0L32 0 32 32 0 32z" transform="translate(-1118 -1520) translate(120 999) translate(998 521)"/>
                    <path fill="#169A5A" d="M25.333 4H24V1.333h-2.667V4H10.667V1.333H8V4H6.667c-1.48 0-2.654 1.2-2.654 2.667L4 25.333C4 26.8 5.187 28 6.667 28h18.666C26.8 28 28 26.8 28 25.333V6.667C28 5.2 26.8 4 25.333 4zm0 21.333H6.667V10.667h18.666v14.666zm-16-12H16V20H9.333v-6.667z" transform="translate(-1118 -1520) translate(120 999) translate(998 521)"/>
                </g>
            </g>
        </g>
    </g>
</svg>
