<svg xmlns="http://www.w3.org/2000/svg" width="32" height="32" viewBox="0 0 32 32">
    <g fill="none" fill-rule="evenodd">
        <g>
            <g>
                <g>
                    <path d="M0 0L32 0 32 32 0 32z" transform="translate(-704 -1520) translate(120 999) translate(584 521)"/>
                    <path fill="#169A5A" d="M30.267 25.333L18.133 13.2c1.2-3.067.534-6.667-2-9.2C13.467 1.333 9.467.8 6.267 2.267L12 8l-4 4-5.867-5.733c-1.6 3.2-.933 7.2 1.734 9.866 2.533 2.534 6.133 3.2 9.2 2L25.2 30.267c.533.533 1.333.533 1.867 0l3.066-3.067c.667-.533.667-1.467.134-1.867z" transform="translate(-704 -1520) translate(120 999) translate(584 521)"/>
                </g>
            </g>
        </g>
    </g>
</svg>
