<svg xmlns="http://www.w3.org/2000/svg" width="24" height="24" viewBox="0 0 24 24">
    <g fill="none" fill-rule="evenodd">
        <g>
            <g>
                <g>
                    <g>
                        <path d="M0 0H24V24H0z" transform="translate(-209 -803) translate(120 558) translate(12 232) translate(77 13)"/>
                        <path fill="#CCCFD1" fill-rule="nonzero" d="M9.5 18H8V9h1.5v9zm3.25 0h-1.5V9h1.5v9zM16 18h-1.5V9H16v9zm1-12h-2V3c0-.55-.45-1-1-1h-4c-.55 0-1 .45-1 1v3H7c-1.1 0-2 .9-2 2v11c0 1.1.9 2 2 2 0 .55.45 1 1 1s1-.45 1-1h6c0 .55.45 1 1 1s1-.45 1-1c1.1 0 2-.9 2-2V8c0-1.1-.9-2-2-2zm-6.5-2.5h3V6h-3V3.5zM17 19H7V8h10v11z" transform="translate(-209 -803) translate(120 558) translate(12 232) translate(77 13)"/>
                    </g>
                </g>
            </g>
        </g>
    </g>
</svg>
