<svg xmlns="http://www.w3.org/2000/svg" width="24" height="24" viewBox="0 0 24 24">
    <g fill="none" fill-rule="evenodd">
        <g>
            <g>
                <g>
                    <path d="M0 0L24 0 24 24 0 24z" transform="translate(-1123 -1508) translate(120 1484) translate(1003 24)"/>
                    <path fill="#FFF" fill-rule="nonzero" d="M18.031 16.617l4.283 4.282-1.415 1.415-4.282-4.283C15.024 19.308 13.042 20.003 11 20c-4.968 0-9-4.032-9-9s4.032-9 9-9 9 4.032 9 9c.003 2.042-.692 4.024-1.969 5.617zm-2.006-.742C17.295 14.57 18.003 12.82 18 11c0-3.868-3.133-7-7-7-3.868 0-7 3.132-7 7 0 3.867 3.132 7 7 7 1.82.003 3.57-.706 4.875-1.975l.15-.15z" transform="translate(-1123 -1508) translate(120 1484) translate(1003 24)"/>
                </g>
            </g>
        </g>
    </g>
</svg>
